<svg width="512" height="512" viewBox="0 0 512 512" fill="none" xmlns="http://www.w3.org/2000/svg">
<rect width="512" height="512" rx="128" fill="white"/>
<path d="M189.75 217.875H159.625V322.875H110.75V217.875H92V193.875L111.75 181.875V179.5C111.75 167.25 113.375 157.292 116.625 149.625C119.875 141.875 125.042 136.167 132.125 132.5C139.208 128.833 148.458 127 159.875 127C167.208 127 173.833 127.583 179.75 128.75C185.75 129.917 192 131.583 198.5 133.75L188 165.375C185.583 164.708 182.875 164.125 179.875 163.625C176.958 163.125 173.792 162.875 170.375 162.875C166.625 162.875 163.875 164.042 162.125 166.375C160.458 168.625 159.625 172.333 159.625 177.5V181.25H189.75V217.875Z" fill="#DD0022"/>
<path d="M295.5 178.75C311.167 178.75 323.458 185.042 332.375 197.625C341.292 210.125 345.75 228.167 345.75 251.75C345.75 267.833 343.5 281.375 339 292.375C334.5 303.292 328.333 311.542 320.5 317.125C312.75 322.625 303.917 325.375 294 325.375C287.333 325.375 281.667 324.542 277 322.875C272.417 321.208 268.583 319.125 265.5 316.625C262.5 314.125 259.958 311.583 257.875 309H256.375C256.792 312.25 257.125 315.75 257.375 319.5C257.708 323.25 257.875 327.625 257.875 332.625V384.375H209V181.25H248.75L255.625 199.25H257.875C260.208 195.583 263.042 192.208 266.375 189.125C269.708 185.958 273.75 183.458 278.5 181.625C283.333 179.708 289 178.75 295.5 178.75ZM277.125 217.125C272.375 217.125 268.625 218.25 265.875 220.5C263.125 222.75 261.125 226.167 259.875 230.75C258.708 235.25 258.042 240.875 257.875 247.625V251.5C257.875 259 258.458 265.333 259.625 270.5C260.792 275.583 262.792 279.458 265.625 282.125C268.458 284.708 272.375 286 277.375 286C281.458 286 284.875 284.833 287.625 282.5C290.375 280.167 292.458 276.458 293.875 271.375C295.292 266.292 296 259.583 296 251.25C296 238.833 294.375 230.042 291.125 224.875C287.958 219.708 283.292 217.125 277.125 217.125Z" fill="black"/>
<path d="M367.625 302.125C367.625 293.292 370.208 287.083 375.375 283.5C380.625 279.917 386.917 278.125 394.25 278.125C401.167 278.125 407.167 279.917 412.25 283.5C417.333 287.083 419.875 293.292 419.875 302.125C419.875 310.542 417.333 316.625 412.25 320.375C407.167 324.125 401.167 326 394.25 326C386.917 326 380.625 324.125 375.375 320.375C370.208 316.625 367.625 310.542 367.625 302.125Z" fill="#DD0022"/>
</svg>
