<svg width="659" height="129" viewBox="0 0 659 129" fill="none" xmlns="http://www.w3.org/2000/svg">
<path d="M48.875 45.4375H33.8125V97.9375H9.375V45.4375H0V33.4375L9.875 27.4375V26.25C9.875 20.125 10.6875 15.1458 12.3125 11.3125C13.9375 7.4375 16.5208 4.58333 20.0625 2.75C23.6042 0.916667 28.2292 0 33.9375 0C37.6042 0 40.9167 0.291667 43.875 0.875C46.875 1.45833 50 2.29167 53.25 3.375L48 19.1875C46.7917 18.8542 45.4375 18.5625 43.9375 18.3125C42.4792 18.0625 40.8958 17.9375 39.1875 17.9375C37.3125 17.9375 35.9375 18.5208 35.0625 19.6875C34.2292 20.8125 33.8125 22.6667 33.8125 25.25V27.125H48.875V45.4375Z" fill="#DD0022"/>
<path d="M93.0625 25.875C102.021 25.875 109.021 28.1042 114.062 32.5625C119.104 36.9792 121.625 43.2917 121.625 51.5V97.9375H104.688L100 88.5625H99.5C97.5 91.0625 95.4375 93.1042 93.3125 94.6875C91.2292 96.2292 88.8333 97.3542 86.125 98.0625C83.4167 98.8125 80.1042 99.1875 76.1875 99.1875C72.1042 99.1875 68.4375 98.3542 65.1875 96.6875C61.9375 95.0208 59.375 92.5 57.5 89.125C55.625 85.75 54.6875 81.4792 54.6875 76.3125C54.6875 68.7292 57.3125 63.1042 62.5625 59.4375C67.8125 55.7708 75.4167 53.7083 85.375 53.25L97.1875 52.875V51.875C97.1875 48.7083 96.3958 46.4583 94.8125 45.125C93.2708 43.7917 91.1875 43.125 88.5625 43.125C85.7708 43.125 82.6458 43.625 79.1875 44.625C75.7708 45.5833 72.3333 46.8333 68.875 48.375L61.8125 32.25C65.8958 30.1667 70.5208 28.5833 75.6875 27.5C80.8542 26.4167 86.6458 25.875 93.0625 25.875ZM97.3125 66.3125L91.6875 66.5625C87.1875 66.7292 84.0208 67.5208 82.1875 68.9375C80.3958 70.3125 79.5 72.2917 79.5 74.875C79.5 77.2917 80.1458 79.0833 81.4375 80.25C82.7292 81.375 84.4375 81.9375 86.5625 81.9375C89.5208 81.9375 92.0417 81 94.125 79.125C96.25 77.25 97.3125 74.8125 97.3125 71.8125V66.3125Z" fill="#DD0022"/>
<path d="M170.5 99.1875C163.333 99.1875 157.104 97.9167 151.812 95.375C146.521 92.7917 142.417 88.8333 139.5 83.5C136.625 78.125 135.188 71.25 135.188 62.875C135.188 54.2917 136.792 47.2708 140 41.8125C143.25 36.3542 147.688 32.3333 153.312 29.75C158.938 27.1667 165.312 25.875 172.438 25.875C176.771 25.875 180.875 26.3542 184.75 27.3125C188.667 28.2708 192.292 29.5833 195.625 31.25L188.438 49.3125C185.521 48.0208 182.792 47 180.25 46.25C177.75 45.4583 175.146 45.0625 172.438 45.0625C169.979 45.0625 167.812 45.7083 165.938 47C164.062 48.2917 162.604 50.25 161.562 52.875C160.521 55.4583 160 58.75 160 62.75C160 66.8333 160.521 70.125 161.562 72.625C162.646 75.125 164.125 76.9375 166 78.0625C167.917 79.1875 170.104 79.75 172.562 79.75C176.104 79.75 179.625 79.2083 183.125 78.125C186.667 77 190.021 75.4583 193.188 73.5V92.9375C190.271 94.8542 186.979 96.375 183.312 97.5C179.646 98.625 175.375 99.1875 170.5 99.1875Z" fill="#DD0022"/>
<path d="M241.938 79.875C244.146 79.875 246.167 79.6458 248 79.1875C249.833 78.7292 251.75 78.1458 253.75 77.4375V95.25C251.083 96.4167 248.25 97.3542 245.25 98.0625C242.292 98.8125 238.5 99.1875 233.875 99.1875C229.292 99.1875 225.25 98.4792 221.75 97.0625C218.25 95.6042 215.521 93.1042 213.562 89.5625C211.646 85.9792 210.688 81 210.688 74.625V45.4375H202.125V35.5L213 27.8125L219.312 12.9375H235.312V27.125H252.688V45.4375H235.312V73C235.312 75.2917 235.896 77.0208 237.062 78.1875C238.229 79.3125 239.854 79.875 241.938 79.875Z" fill="#DD0022"/>
<path d="M300.688 25.875C309.646 25.875 316.646 28.1042 321.688 32.5625C326.729 36.9792 329.25 43.2917 329.25 51.5V97.9375H312.312L307.625 88.5625H307.125C305.125 91.0625 303.062 93.1042 300.938 94.6875C298.854 96.2292 296.458 97.3542 293.75 98.0625C291.042 98.8125 287.729 99.1875 283.812 99.1875C279.729 99.1875 276.062 98.3542 272.812 96.6875C269.562 95.0208 267 92.5 265.125 89.125C263.25 85.75 262.312 81.4792 262.312 76.3125C262.312 68.7292 264.938 63.1042 270.188 59.4375C275.438 55.7708 283.042 53.7083 293 53.25L304.812 52.875V51.875C304.812 48.7083 304.021 46.4583 302.438 45.125C300.896 43.7917 298.812 43.125 296.188 43.125C293.396 43.125 290.271 43.625 286.812 44.625C283.396 45.5833 279.958 46.8333 276.5 48.375L269.438 32.25C273.521 30.1667 278.146 28.5833 283.312 27.5C288.479 26.4167 294.271 25.875 300.688 25.875ZM304.938 66.3125L299.312 66.5625C294.812 66.7292 291.646 67.5208 289.812 68.9375C288.021 70.3125 287.125 72.2917 287.125 74.875C287.125 77.2917 287.771 79.0833 289.062 80.25C290.354 81.375 292.062 81.9375 294.188 81.9375C297.146 81.9375 299.667 81 301.75 79.125C303.875 77.25 304.938 74.8125 304.938 71.8125V66.3125Z" fill="#DD0022"/>
<path d="M389.125 25.875C396.958 25.875 403.104 29.0208 407.562 35.3125C412.021 41.5625 414.25 50.5833 414.25 62.375C414.25 70.4167 413.125 77.1875 410.875 82.6875C408.625 88.1458 405.542 92.2708 401.625 95.0625C397.75 97.8125 393.333 99.1875 388.375 99.1875C385.042 99.1875 382.208 98.7708 379.875 97.9375C377.583 97.1042 375.667 96.0625 374.125 94.8125C372.625 93.5625 371.354 92.2917 370.312 91H369.562C369.771 92.625 369.938 94.375 370.062 96.25C370.229 98.125 370.312 100.312 370.312 102.812V128.688H345.875V27.125H365.75L369.188 36.125H370.312C371.479 34.2917 372.896 32.6042 374.562 31.0625C376.229 29.4792 378.25 28.2292 380.625 27.3125C383.042 26.3542 385.875 25.875 389.125 25.875ZM379.938 45.0625C377.562 45.0625 375.688 45.625 374.312 46.75C372.938 47.875 371.938 49.5833 371.312 51.875C370.729 54.125 370.396 56.9375 370.312 60.3125V62.25C370.312 66 370.604 69.1667 371.188 71.75C371.771 74.2917 372.771 76.2292 374.188 77.5625C375.604 78.8542 377.562 79.5 380.062 79.5C382.104 79.5 383.812 78.9167 385.188 77.75C386.562 76.5833 387.604 74.7292 388.312 72.1875C389.021 69.6458 389.375 66.2917 389.375 62.125C389.375 55.9167 388.562 51.5208 386.938 48.9375C385.354 46.3542 383.021 45.0625 379.938 45.0625Z" fill="white"/>
<path d="M495.875 62.375C495.875 68.2917 495.062 73.5417 493.438 78.125C491.812 82.7083 489.458 86.5625 486.375 89.6875C483.292 92.8125 479.562 95.1875 475.188 96.8125C470.812 98.3958 465.875 99.1875 460.375 99.1875C455.25 99.1875 450.542 98.3958 446.25 96.8125C442 95.1875 438.292 92.8125 435.125 89.6875C431.958 86.5625 429.5 82.7083 427.75 78.125C426.042 73.5417 425.188 68.2917 425.188 62.375C425.188 54.5417 426.604 47.9167 429.438 42.5C432.312 37.0833 436.396 32.9583 441.688 30.125C447.021 27.2917 453.375 25.875 460.75 25.875C467.542 25.875 473.583 27.2917 478.875 30.125C484.167 32.9583 488.312 37.0833 491.312 42.5C494.354 47.9167 495.875 54.5417 495.875 62.375ZM450 62.375C450 66.4167 450.354 69.8333 451.062 72.625C451.771 75.375 452.896 77.4792 454.438 78.9375C456.021 80.3542 458.083 81.0625 460.625 81.0625C463.167 81.0625 465.188 80.3542 466.688 78.9375C468.188 77.4792 469.271 75.375 469.938 72.625C470.646 69.8333 471 66.4167 471 62.375C471 58.3333 470.646 54.9583 469.938 52.25C469.271 49.5417 468.167 47.5 466.625 46.125C465.125 44.75 463.083 44.0625 460.5 44.0625C456.792 44.0625 454.104 45.6042 452.438 48.6875C450.812 51.7708 450 56.3333 450 62.375Z" fill="white"/>
<path d="M562.5 76.1875C562.5 80.6875 561.5 84.6667 559.5 88.125C557.5 91.5833 554.292 94.2917 549.875 96.25C545.5 98.2083 539.729 99.1875 532.562 99.1875C527.521 99.1875 523 98.9167 519 98.375C515.042 97.8333 511.021 96.7917 506.938 95.25V75.6875C511.396 77.7292 515.938 79.2083 520.562 80.125C525.188 81 528.833 81.4375 531.5 81.4375C534.25 81.4375 536.25 81.1458 537.5 80.5625C538.792 79.9375 539.438 79.0208 539.438 77.8125C539.438 76.7708 539 75.8958 538.125 75.1875C537.292 74.4375 535.771 73.5833 533.562 72.625C531.396 71.6667 528.333 70.375 524.375 68.75C520.458 67.125 517.188 65.3542 514.562 63.4375C511.979 61.5208 510.042 59.2292 508.75 56.5625C507.458 53.8958 506.812 50.625 506.812 46.75C506.812 39.8333 509.479 34.625 514.812 31.125C520.146 27.625 527.208 25.875 536 25.875C540.667 25.875 545.062 26.3958 549.188 27.4375C553.312 28.4375 557.583 29.9167 562 31.875L555.312 47.625C551.812 46.0417 548.271 44.7708 544.688 43.8125C541.104 42.8542 538.25 42.375 536.125 42.375C534.208 42.375 532.729 42.625 531.688 43.125C530.646 43.625 530.125 44.3542 530.125 45.3125C530.125 46.1875 530.479 46.9583 531.188 47.625C531.938 48.2917 533.333 49.0625 535.375 49.9375C537.417 50.8125 540.396 52.0417 544.312 53.625C548.438 55.2917 551.833 57.0833 554.5 59C557.208 60.875 559.208 63.1667 560.5 65.875C561.833 68.5833 562.5 72.0208 562.5 76.1875Z" fill="white"/>
<path d="M610.812 79.875C613.021 79.875 615.042 79.6458 616.875 79.1875C618.708 78.7292 620.625 78.1458 622.625 77.4375V95.25C619.958 96.4167 617.125 97.3542 614.125 98.0625C611.167 98.8125 607.375 99.1875 602.75 99.1875C598.167 99.1875 594.125 98.4792 590.625 97.0625C587.125 95.6042 584.396 93.1042 582.438 89.5625C580.521 85.9792 579.562 81 579.562 74.625V45.4375H571V35.5L581.875 27.8125L588.188 12.9375H604.188V27.125H621.562V45.4375H604.188V73C604.188 75.2917 604.771 77.0208 605.938 78.1875C607.104 79.3125 608.729 79.875 610.812 79.875Z" fill="white"/>
<path d="M631.938 87.5625C631.938 83.1458 633.229 80.0417 635.812 78.25C638.438 76.4583 641.583 75.5625 645.25 75.5625C648.708 75.5625 651.708 76.4583 654.25 78.25C656.792 80.0417 658.062 83.1458 658.062 87.5625C658.062 91.7708 656.792 94.8125 654.25 96.6875C651.708 98.5625 648.708 99.5 645.25 99.5C641.583 99.5 638.438 98.5625 635.812 96.6875C633.229 94.8125 631.938 91.7708 631.938 87.5625Z" fill="#DD0022"/>
</svg>
