<svg width="1024" height="512" viewBox="0 0 1024 512" fill="none" xmlns="http://www.w3.org/2000/svg">
<rect width="1024" height="512" fill="#DD0022"/>
<path d="M231.875 237.438H216.812V289.938H192.375V237.438H183V225.438L192.875 219.438V218.25C192.875 212.125 193.688 207.146 195.312 203.312C196.938 199.438 199.521 196.583 203.062 194.75C206.604 192.917 211.229 192 216.938 192C220.604 192 223.917 192.292 226.875 192.875C229.875 193.458 233 194.292 236.25 195.375L231 211.188C229.792 210.854 228.438 210.562 226.938 210.312C225.479 210.062 223.896 209.938 222.188 209.938C220.312 209.938 218.938 210.521 218.062 211.688C217.229 212.812 216.812 214.667 216.812 217.25V219.125H231.875V237.438Z" fill="black"/>
<path d="M276.062 217.875C285.021 217.875 292.021 220.104 297.062 224.562C302.104 228.979 304.625 235.292 304.625 243.5V289.938H287.688L283 280.562H282.5C280.5 283.062 278.438 285.104 276.312 286.688C274.229 288.229 271.833 289.354 269.125 290.062C266.417 290.812 263.104 291.188 259.188 291.188C255.104 291.188 251.438 290.354 248.188 288.688C244.938 287.021 242.375 284.5 240.5 281.125C238.625 277.75 237.688 273.479 237.688 268.312C237.688 260.729 240.312 255.104 245.562 251.438C250.812 247.771 258.417 245.708 268.375 245.25L280.188 244.875V243.875C280.188 240.708 279.396 238.458 277.812 237.125C276.271 235.792 274.188 235.125 271.562 235.125C268.771 235.125 265.646 235.625 262.188 236.625C258.771 237.583 255.333 238.833 251.875 240.375L244.812 224.25C248.896 222.167 253.521 220.583 258.688 219.5C263.854 218.417 269.646 217.875 276.062 217.875ZM280.312 258.312L274.688 258.562C270.188 258.729 267.021 259.521 265.188 260.938C263.396 262.312 262.5 264.292 262.5 266.875C262.5 269.292 263.146 271.083 264.438 272.25C265.729 273.375 267.438 273.938 269.562 273.938C272.521 273.938 275.042 273 277.125 271.125C279.25 269.25 280.312 266.812 280.312 263.812V258.312Z" fill="black"/>
<path d="M353.5 291.188C346.333 291.188 340.104 289.917 334.812 287.375C329.521 284.792 325.417 280.833 322.5 275.5C319.625 270.125 318.188 263.25 318.188 254.875C318.188 246.292 319.792 239.271 323 233.812C326.25 228.354 330.688 224.333 336.312 221.75C341.938 219.167 348.312 217.875 355.438 217.875C359.771 217.875 363.875 218.354 367.75 219.312C371.667 220.271 375.292 221.583 378.625 223.25L371.438 241.312C368.521 240.021 365.792 239 363.25 238.25C360.75 237.458 358.146 237.062 355.438 237.062C352.979 237.062 350.812 237.708 348.938 239C347.062 240.292 345.604 242.25 344.562 244.875C343.521 247.458 343 250.75 343 254.75C343 258.833 343.521 262.125 344.562 264.625C345.646 267.125 347.125 268.938 349 270.062C350.917 271.188 353.104 271.75 355.562 271.75C359.104 271.75 362.625 271.208 366.125 270.125C369.667 269 373.021 267.458 376.188 265.5V284.938C373.271 286.854 369.979 288.375 366.312 289.5C362.646 290.625 358.375 291.188 353.5 291.188Z" fill="black"/>
<path d="M424.938 271.875C427.146 271.875 429.167 271.646 431 271.188C432.833 270.729 434.75 270.146 436.75 269.438V287.25C434.083 288.417 431.25 289.354 428.25 290.062C425.292 290.812 421.5 291.188 416.875 291.188C412.292 291.188 408.25 290.479 404.75 289.062C401.25 287.604 398.521 285.104 396.562 281.562C394.646 277.979 393.688 273 393.688 266.625V237.438H385.125V227.5L396 219.812L402.312 204.938H418.312V219.125H435.688V237.438H418.312V265C418.312 267.292 418.896 269.021 420.062 270.188C421.229 271.312 422.854 271.875 424.938 271.875Z" fill="black"/>
<path d="M483.688 217.875C492.646 217.875 499.646 220.104 504.688 224.562C509.729 228.979 512.25 235.292 512.25 243.5V289.938H495.312L490.625 280.562H490.125C488.125 283.062 486.062 285.104 483.938 286.688C481.854 288.229 479.458 289.354 476.75 290.062C474.042 290.812 470.729 291.188 466.812 291.188C462.729 291.188 459.062 290.354 455.812 288.688C452.562 287.021 450 284.5 448.125 281.125C446.25 277.75 445.312 273.479 445.312 268.312C445.312 260.729 447.938 255.104 453.188 251.438C458.438 247.771 466.042 245.708 476 245.25L487.812 244.875V243.875C487.812 240.708 487.021 238.458 485.438 237.125C483.896 235.792 481.812 235.125 479.188 235.125C476.396 235.125 473.271 235.625 469.812 236.625C466.396 237.583 462.958 238.833 459.5 240.375L452.438 224.25C456.521 222.167 461.146 220.583 466.312 219.5C471.479 218.417 477.271 217.875 483.688 217.875ZM487.938 258.312L482.312 258.562C477.812 258.729 474.646 259.521 472.812 260.938C471.021 262.312 470.125 264.292 470.125 266.875C470.125 269.292 470.771 271.083 472.062 272.25C473.354 273.375 475.062 273.938 477.188 273.938C480.146 273.938 482.667 273 484.75 271.125C486.875 269.25 487.938 266.812 487.938 263.812V258.312Z" fill="black"/>
<path d="M572.125 217.875C579.958 217.875 586.104 221.021 590.562 227.312C595.021 233.562 597.25 242.583 597.25 254.375C597.25 262.417 596.125 269.188 593.875 274.688C591.625 280.146 588.542 284.271 584.625 287.062C580.75 289.812 576.333 291.188 571.375 291.188C568.042 291.188 565.208 290.771 562.875 289.938C560.583 289.104 558.667 288.062 557.125 286.812C555.625 285.562 554.354 284.292 553.312 283H552.562C552.771 284.625 552.938 286.375 553.062 288.25C553.229 290.125 553.312 292.312 553.312 294.812V320.688H528.875V219.125H548.75L552.188 228.125H553.312C554.479 226.292 555.896 224.604 557.562 223.062C559.229 221.479 561.25 220.229 563.625 219.312C566.042 218.354 568.875 217.875 572.125 217.875ZM562.938 237.062C560.562 237.062 558.688 237.625 557.312 238.75C555.938 239.875 554.938 241.583 554.312 243.875C553.729 246.125 553.396 248.938 553.312 252.312V254.25C553.312 258 553.604 261.167 554.188 263.75C554.771 266.292 555.771 268.229 557.188 269.562C558.604 270.854 560.562 271.5 563.062 271.5C565.104 271.5 566.812 270.917 568.188 269.75C569.562 268.583 570.604 266.729 571.312 264.188C572.021 261.646 572.375 258.292 572.375 254.125C572.375 247.917 571.562 243.521 569.938 240.938C568.354 238.354 566.021 237.062 562.938 237.062Z" fill="white"/>
<path d="M678.875 254.375C678.875 260.292 678.062 265.542 676.438 270.125C674.812 274.708 672.458 278.562 669.375 281.688C666.292 284.812 662.562 287.188 658.188 288.812C653.812 290.396 648.875 291.188 643.375 291.188C638.25 291.188 633.542 290.396 629.25 288.812C625 287.188 621.292 284.812 618.125 281.688C614.958 278.562 612.5 274.708 610.75 270.125C609.042 265.542 608.188 260.292 608.188 254.375C608.188 246.542 609.604 239.917 612.438 234.5C615.312 229.083 619.396 224.958 624.688 222.125C630.021 219.292 636.375 217.875 643.75 217.875C650.542 217.875 656.583 219.292 661.875 222.125C667.167 224.958 671.312 229.083 674.312 234.5C677.354 239.917 678.875 246.542 678.875 254.375ZM633 254.375C633 258.417 633.354 261.833 634.062 264.625C634.771 267.375 635.896 269.479 637.438 270.938C639.021 272.354 641.083 273.062 643.625 273.062C646.167 273.062 648.188 272.354 649.688 270.938C651.188 269.479 652.271 267.375 652.938 264.625C653.646 261.833 654 258.417 654 254.375C654 250.333 653.646 246.958 652.938 244.25C652.271 241.542 651.167 239.5 649.625 238.125C648.125 236.75 646.083 236.062 643.5 236.062C639.792 236.062 637.104 237.604 635.438 240.688C633.812 243.771 633 248.333 633 254.375Z" fill="white"/>
<path d="M745.5 268.188C745.5 272.688 744.5 276.667 742.5 280.125C740.5 283.583 737.292 286.292 732.875 288.25C728.5 290.208 722.729 291.188 715.562 291.188C710.521 291.188 706 290.917 702 290.375C698.042 289.833 694.021 288.792 689.938 287.25V267.688C694.396 269.729 698.938 271.208 703.562 272.125C708.188 273 711.833 273.438 714.5 273.438C717.25 273.438 719.25 273.146 720.5 272.562C721.792 271.938 722.438 271.021 722.438 269.812C722.438 268.771 722 267.896 721.125 267.188C720.292 266.438 718.771 265.583 716.562 264.625C714.396 263.667 711.333 262.375 707.375 260.75C703.458 259.125 700.188 257.354 697.562 255.438C694.979 253.521 693.042 251.229 691.75 248.562C690.458 245.896 689.812 242.625 689.812 238.75C689.812 231.833 692.479 226.625 697.812 223.125C703.146 219.625 710.208 217.875 719 217.875C723.667 217.875 728.062 218.396 732.188 219.438C736.312 220.438 740.583 221.917 745 223.875L738.312 239.625C734.812 238.042 731.271 236.771 727.688 235.812C724.104 234.854 721.25 234.375 719.125 234.375C717.208 234.375 715.729 234.625 714.688 235.125C713.646 235.625 713.125 236.354 713.125 237.312C713.125 238.188 713.479 238.958 714.188 239.625C714.938 240.292 716.333 241.062 718.375 241.938C720.417 242.812 723.396 244.042 727.312 245.625C731.438 247.292 734.833 249.083 737.5 251C740.208 252.875 742.208 255.167 743.5 257.875C744.833 260.583 745.5 264.021 745.5 268.188Z" fill="white"/>
<path d="M793.812 271.875C796.021 271.875 798.042 271.646 799.875 271.188C801.708 270.729 803.625 270.146 805.625 269.438V287.25C802.958 288.417 800.125 289.354 797.125 290.062C794.167 290.812 790.375 291.188 785.75 291.188C781.167 291.188 777.125 290.479 773.625 289.062C770.125 287.604 767.396 285.104 765.438 281.562C763.521 277.979 762.562 273 762.562 266.625V237.438H754V227.5L764.875 219.812L771.188 204.938H787.188V219.125H804.562V237.438H787.188V265C787.188 267.292 787.771 269.021 788.938 270.188C790.104 271.312 791.729 271.875 793.812 271.875Z" fill="white"/>
<path d="M814.938 279.562C814.938 275.146 816.229 272.042 818.812 270.25C821.438 268.458 824.583 267.562 828.25 267.562C831.708 267.562 834.708 268.458 837.25 270.25C839.792 272.042 841.062 275.146 841.062 279.562C841.062 283.771 839.792 286.812 837.25 288.688C834.708 290.562 831.708 291.5 828.25 291.5C824.583 291.5 821.438 290.562 818.812 288.688C816.229 286.812 814.938 283.771 814.938 279.562Z" fill="black"/>
</svg>
